<svg width="20" height="20" fill="none" xmlns="http://www.w3.org/2000/svg"><path fill-rule="evenodd" clip-rule="evenodd" d="M20 4.215V19.09c0 .502-.444.909-.991.909H.991C.444 20 0 19.593 0 19.09V4.216c0 .502.444.909.991.909h.991v13.058h16.036V5.124h.991c.547 0 .991-.407.991-.91zm0 0zm-3.384-.91l-1.621-1.487h-9.99L3.383 3.306H.991c-.274 0-.521.102-.7.266L3.893.266a1.04 1.04 0 01.7-.266h10.811c.263 0 .515.096.701.266l3.604 3.306a1.034 1.034 0 00-.701-.266h-2.393zM.29 3.573zm16.326-.266l1.402 1.285v.533H1.982v-.533l1.401-1.285h13.233zm-2.111 4.132c-.548 0-.992.407-.992.91 0 1.811-1.538 3.222-3.513 3.222-1.975 0-3.514-1.41-3.514-3.223 0-.502-.443-.909-.99-.909-.548 0-.992.407-.992.91 0 2.815 2.426 5.04 5.496 5.04 3.07 0 5.495-2.225 5.495-5.04 0-.503-.443-.91-.99-.91z" fill="#111"/></svg>