<svg width="30" height="28" fill="none" xmlns="http://www.w3.org/2000/svg"><path fill-rule="evenodd" clip-rule="evenodd" d="M11.157 3.176H1.364A1.35 1.35 0 010 1.838C0 1.099.61.5 1.364.5H12.52a1.35 1.35 0 011.363 1.338v3.527H12.52c-.751 0-1.36.596-1.364 1.332V3.176zm2.48 19.46h-1.116a1.35 1.35 0 01-1.364-1.339v-14.6.006c0 .739.61 1.338 1.364 1.338a1.35 1.35 0 001.363-1.338V5.365h8.554a1.36 1.36 0 011.323 1.013l1.088 4.268 4.397 2.157c.462.227.754.69.754 1.197v7.297a1.35 1.35 0 01-1.364 1.338H23.8a4.912 4.912 0 00-.715-2.676h4.188v-5.132l-4.205-2.063a1.343 1.343 0 01-.713-.872l-.982-3.851h-7.489v11.918h.469a4.893 4.893 0 00-.715 2.676zm2.852-.87a1.363 1.363 0 01-1.277.87h-1.574c.066 2.697 2.315 4.864 5.081 4.864 2.766 0 5.015-2.167 5.081-4.865h-1.574a1.363 1.363 0 01-1.294-.914 1.312 1.312 0 01-.07-.424c0-.739.61-1.338 1.364-1.338h.86a5.1 5.1 0 00-4.367-2.432 5.1 5.1 0 00-4.366 2.432h.859a1.35 1.35 0 011.364 1.338 1.313 1.313 0 01-.087.47zm0 0l.017-.045a2.354 2.354 0 012.213-1.518 2.355 2.355 0 012.23 1.563c.081.234.125.486.125.748 0 1.276-1.054 2.31-2.355 2.31-1.3 0-2.355-1.034-2.355-2.31 0-.262.044-.514.125-.748zM8.927 14a1.35 1.35 0 00-1.364-1.338h-3.72A1.35 1.35 0 002.48 14c0 .739.61 1.338 1.364 1.338h3.719A1.35 1.35 0 008.926 14zm0 6.081a1.35 1.35 0 00-1.364-1.338h-1.24c-.753 0-1.363.6-1.363 1.338 0 .739.61 1.338 1.363 1.338h1.24a1.35 1.35 0 001.364-1.338zM0 7.92c0 .739.61 1.338 1.364 1.338h6.198A1.35 1.35 0 008.926 7.92a1.35 1.35 0 00-1.364-1.34H1.364A1.35 1.35 0 000 7.92zm21.322 4.865a1.35 1.35 0 00-1.363-1.338h-1.116V10.35c0-.739-.61-1.337-1.364-1.337a1.35 1.35 0 00-1.363 1.337v2.433c0 .739.61 1.338 1.363 1.338h2.48a1.35 1.35 0 001.363-1.338z" fill="#111"/></svg>