<svg width="21" height="20" fill="none" xmlns="http://www.w3.org/2000/svg"><path fill-rule="evenodd" clip-rule="evenodd" d="M18.283 11.119c2.291-2.43 2.291-6.368 0-8.797-2.286-2.423-5.989-2.43-8.281-.018C7.709-.107 4.006-.101 1.72 2.322c-2.29 2.428-2.29 6.368 0 8.797l7.638 8.098a.873.873 0 001.286 0l7.639-8.098zm-1.286-1.363l-6.996 7.417-6.995-7.417c-1.581-1.676-1.581-4.395 0-6.071 1.581-1.677 4.146-1.677 5.727 0 .19.201.361.424.511.663a.881.881 0 001.515 0c.15-.24.32-.461.511-.663 1.582-1.677 4.146-1.677 5.727 0 1.582 1.676 1.582 4.395 0 6.071z" fill="#111"/></svg>