<svg width="24" height="30" fill="none" xmlns="http://www.w3.org/2000/svg"><path fill-rule="evenodd" clip-rule="evenodd" d="M12 0c4.493 0 8.044 3.338 8.044 7.562v2.355H3.956V7.562C3.956 3.338 7.506 0 12 0zM5.404 12.645c-.8-.002-1.448-.612-1.448-1.364V9.917H1.451c-.802 0-1.451.61-1.451 1.364v17.355C0 29.39.65 30 1.45 30h21.1c.8 0 1.45-.61 1.45-1.364V11.281c0-.753-.65-1.364-1.45-1.364h-2.506v1.364c0 .752-.648 1.362-1.448 1.364H5.404zm0 0H2.901v14.628H21.1V12.645H5.404zm11.739-2.728V7.562c0-2.718-2.252-4.835-5.143-4.835S6.857 4.844 6.857 7.562v2.355h10.286zm-9.23 8.802c0 1.642 1.095 3.044 2.636 3.594v1.365c0 .753.65 1.363 1.451 1.363s1.45-.61 1.45-1.363v-1.365c1.542-.55 2.638-1.952 2.638-3.594 0-2.122-1.83-3.843-4.088-3.843s-4.088 1.72-4.088 3.843zm5.537 3.594v-1.115c0-.753-.649-1.363-1.45-1.363-.801 0-1.45.61-1.45 1.363v1.115a4.329 4.329 0 002.9 0zM12 19.835c.655 0 1.187-.5 1.187-1.116 0-.616-.532-1.116-1.187-1.116s-1.187.5-1.187 1.116c0 .616.531 1.116 1.187 1.116z" fill="#111"/></svg>