<svg width="30" height="28" fill="none" xmlns="http://www.w3.org/2000/svg"><path fill-rule="evenodd" clip-rule="evenodd" d="M4.959 18.188H1.364C.61 18.188 0 17.615 0 16.908V1.78C0 1.073.61.5 1.364.5h22.314c.753 0 1.363.573 1.363 1.28v15.128c0 .707-.61 1.28-1.363 1.28h-8.241l-8.322 5.58c-.903.605-2.156 0-2.156-1.041v-4.539zM27.273 6.435c0-.707.61-1.28 1.363-1.28.754 0 1.364.573 1.364 1.28v15.128c0 .707-.61 1.28-1.364 1.28h-3.595v3.375c0 1.022-1.213 1.632-2.12 1.065l-7.094-4.44H15c-.753 0-1.364-.573-1.364-1.28 0-.707.61-1.28 1.364-1.28h1.24c.269 0 .532.075.756.215l5.318 3.328v-2.263c0-.707.61-1.28 1.364-1.28h3.595V6.435zM2.727 3.06h19.587v12.568H15c-.284 0-.561.083-.793.239l-6.521 4.372v-3.33c0-.708-.61-1.28-1.364-1.28H2.727V3.06z" fill="#111"/></svg>