<svg width="30" height="30" fill="none" xmlns="http://www.w3.org/2000/svg"><path fill-rule="evenodd" clip-rule="evenodd" d="M12.688 5.771c.073-.235.115-.373.159-.53.38-1.36.35-2.42-.432-3.399C11.178.08 8.325.21 6.43 1.542 2.406 4.33 0 8.903 0 13.913c0 8.38 6.708 15.118 15.052 15.118 6.746 0 12.695-4.572 14.503-10.996 1.096-4.674.305-9.406-3.925-11.591-2.963-1.398-5.436-1.226-9.177-.06-3.036.947-3.586 1-4.082.402.018.022.033-.032.086-.224.044-.158.113-.41.231-.79zm2.364 20.511c-6.832 0-12.315-5.507-12.315-12.369 0-4.103 1.962-7.832 5.255-10.113.827-.582 2.017-.63 2.19-.37l.087.118c.102.123.11.352-.058.953-.034.122-.07.24-.135.45-.557 1.79-.637 2.553.176 3.573 1.598 1.927 2.737 1.82 7.013.486 3.145-.981 5.013-1.111 7.157-.1 2.723 1.408 3.31 4.913 2.484 8.436-1.46 5.188-6.34 8.936-11.854 8.936zm6.22-8.496a3.865 3.865 0 01-3.856-3.873 3.865 3.865 0 013.856-3.873 3.865 3.865 0 013.856 3.873 3.865 3.865 0 01-3.856 3.873zm1.12-3.873c0 .621-.502 1.124-1.12 1.124-.618 0-1.12-.503-1.12-1.124 0-.621.502-1.124 1.12-1.124.618 0 1.12.503 1.12 1.124zM6.343 16.537a2.618 2.618 0 01-2.612-2.624c0-1.45 1.17-2.624 2.612-2.624a2.618 2.618 0 012.613 2.624c0 1.45-1.17 2.624-2.613 2.624zm-.124-2.624c0-.069.056-.125.124-.125a.125.125 0 010 .25.125.125 0 01-.124-.125zm3.234 8.87a2.618 2.618 0 01-2.612-2.623 2.619 2.619 0 012.612-2.624 2.618 2.618 0 012.612 2.624c0 1.45-1.17 2.624-2.612 2.624zM9.33 20.16c0-.069.055-.125.124-.125a.125.125 0 010 .25.125.125 0 01-.124-.125zm6.966 5.123a2.618 2.618 0 01-2.612-2.624 2.618 2.618 0 012.612-2.624 2.618 2.618 0 012.612 2.624 2.619 2.619 0 01-2.612 2.624zm-.124-2.624a.125.125 0 11.124.125.125.125 0 01-.124-.125z" fill="#111"/></svg>