<svg width="16" height="20" fill="none" xmlns="http://www.w3.org/2000/svg"><path fill-rule="evenodd" clip-rule="evenodd" d="M8 0C5.332 0 3.168 2.257 3.168 5.041c0 2.9 2.23 5.868 4.832 5.868 2.603 0 4.832-2.968 4.832-5.868C12.832 2.257 10.668 0 8 0zM4.91 5.041c0 1.98 1.556 4.05 3.09 4.05 1.534 0 3.09-2.07 3.09-4.05 0-1.78-1.384-3.223-3.09-3.223S4.91 3.262 4.91 5.041zM16 17.438c0-3.24-2.518-5.868-5.624-5.868H5.624C2.518 11.57 0 14.197 0 17.438v.827c0 .395.245.745.606.865.349.117 1 .282 1.943.445C4.096 19.84 5.916 20 8 20c2.084 0 3.904-.16 5.451-.425.943-.163 1.594-.328 1.943-.445a.905.905 0 00.606-.865v-.827zm-5.624-4.05c2.144 0 3.881 1.813 3.881 4.05v.123c-.315.075-.678.149-1.09.22-1.454.25-3.18.4-5.167.4-1.988 0-3.713-.15-5.168-.4a17.99 17.99 0 01-1.09-.22v-.123c0-2.237 1.738-4.05 3.882-4.05h4.752z" fill="#111"/></svg>